<svg xmlns="http://www.w3.org/2000/svg" xmlns:xlink="http://www.w3.org/1999/xlink"><defs><style>
    .sprite-symbol-usage {display: none;}
    .sprite-symbol-usage:target {display: inline;}
  </style><symbol viewBox="0 0 13 13" id="arrow"><path d="M5.187 11.615 9.57 7.416H0V5.562h9.612L5.124 1.28 6.352 0 13 6.5 6.352 13l-1.186-1.364.021-.021Z" /></symbol><symbol fill="none" viewBox="0 0 24 25" id="arrow_left"><path d="m14.424 2.664-8.092 8.074H24v3.565H6.254l8.287 8.238L12.274 25 0 12.5 12.274 0l2.189 2.623-.04.04Z" fill="currentColor" /></symbol><symbol fill="none" viewBox="0 0 24 25" id="arrow_right"><g clip-path="url(#arrow_right_a)"><path d="m9.577 22.336 8.09-8.074H0v-3.565h17.746L9.459 2.459 11.726 0 24 12.5 11.726 25l-2.189-2.623.04-.04Z" fill="currentColor" /></g><defs></defs></symbol><clipPath id="arrow_right_a"><path fill="currentColor" d="M0 0h24v25H0z" /></clipPath><symbol fill="none" viewBox="0 0 32 28" id="play"><path d="M32 14 .5 27.856V.144L32 14Z" fill="#695E5E" /></symbol></defs><use id="arrow-usage" xlink:href="#arrow" class="sprite-symbol-usage" /><use id="arrow_left-usage" xlink:href="#arrow_left" class="sprite-symbol-usage" /><use id="arrow_right-usage" xlink:href="#arrow_right" class="sprite-symbol-usage" /><use id="play-usage" xlink:href="#play" class="sprite-symbol-usage" /></svg>